<svg width="512" height="580" viewBox="0 0 512 580" fill="none" xmlns="http://www.w3.org/2000/svg">
<circle cx="256" cy="302" r="256" fill="#56A80F"/>
<path d="M131.536 412.2C135.536 403.4 140.336 392.067 145.936 378.2C151.536 364.333 157.403 349.4 163.536 333.4C169.669 317.133 175.936 300.6 182.336 283.8C188.736 266.733 194.736 250.6 200.336 235.4C205.936 220.2 210.736 206.6 214.736 194.6C219.003 182.6 222.069 173.4 223.936 167C207.136 173.933 192.736 184.467 180.736 198.6C168.736 212.733 159.669 230.467 153.536 251.8C147.403 249.667 141.803 245.933 136.736 240.6C131.669 235 128.336 228.067 126.736 219.8C129.403 207.533 134.336 196.333 141.536 186.2C149.003 176.067 158.336 167.4 169.536 160.2C180.736 153 193.669 147.533 208.336 143.8C223.003 139.8 238.736 137.8 255.536 137.8C276.869 137.8 296.469 141 314.336 147.4C332.203 153.533 347.536 162.2 360.336 173.4C373.136 184.6 383.136 198.067 390.336 213.8C397.536 229.533 401.136 247 401.136 266.2C401.136 292.333 396.336 317.267 386.736 341C377.136 364.733 364.069 385.667 347.536 403.8C331.269 421.933 312.336 436.333 290.736 447C269.136 457.933 246.469 463.4 222.736 463.4C200.869 463.4 182.069 459 166.336 450.2C150.869 441.667 139.269 429 131.536 412.2ZM272.736 157.8C259.403 157.8 246.736 159.667 234.736 163.4C246.469 167.667 256.203 172.2 263.936 177C271.669 181.533 277.003 185.133 279.936 187.8C277.803 190.733 274.603 195.933 270.336 203.4C266.336 210.867 261.536 219.933 255.936 230.6C250.603 241.267 244.869 253 238.736 265.8C232.603 278.333 226.603 291.267 220.736 304.6C205.536 338.467 194.469 365.133 187.536 384.6C180.869 404.067 177.536 417.533 177.536 425C181.269 426.333 185.803 427.267 191.136 427.8C196.469 428.333 202.203 428.6 208.336 428.6C229.936 428.6 250.336 423.667 269.536 413.8C289.003 403.667 305.936 390.2 320.336 373.4C335.003 356.6 346.469 337.133 354.736 315C363.269 292.6 367.536 269.133 367.536 244.6C367.536 217.133 359.003 195.8 341.936 180.6C324.869 165.4 301.803 157.8 272.736 157.8Z" fill="white"/>
</svg>
