<svg width="512" height="512" viewBox="0 0 512 512" fill="none" xmlns="http://www.w3.org/2000/svg">
<rect width="512" height="512" rx="256" fill="url(#paint0_linear_300_16)"/>
<path d="M287.56 262.32L287.92 323.16C287.92 351.72 284.32 370.56 277.12 379.68C269.92 388.56 256.84 393 237.88 393H184.96V358.8H211.6C217.6 358.8 221.56 358.08 223.48 356.64C225.4 355.2 226.36 352.44 226.36 348.36V177.72C226.36 173.4 225.4 170.52 223.48 169.08C221.56 167.64 217.6 166.92 211.6 166.92H184.96V132.72H241.48C259 132.72 271.12 136.8 277.84 144.96C284.8 152.88 288.28 168.48 288.28 191.76L287.56 262.32ZM174.16 393.36H136.36C128.44 393.36 123.16 392.04 120.52 389.4C117.88 386.52 116.56 381 116.56 372.84V153.24C116.56 145.08 117.88 139.68 120.52 137.04C123.16 134.16 128.44 132.72 136.36 132.72H174.16V393.36ZM395.644 393H357.844C349.684 393 344.284 391.68 341.644 389.04C339.244 386.4 338.044 380.88 338.044 372.48V153.24C338.044 144.84 339.244 139.32 341.644 136.68C344.284 134.04 349.684 132.72 357.844 132.72H395.644V393Z" fill="white"/>
<defs>
<linearGradient id="paint0_linear_300_16" x1="99" y1="64.5" x2="404.5" y2="459.5" gradientUnits="userSpaceOnUse">
<stop stop-opacity="0.6"/>
<stop offset="1"/>
</linearGradient>
</defs>
</svg>
