<?xml version="1.0" encoding="utf-8"?>
<!-- Generator: Adobe Illustrator 27.5.0, SVG Export Plug-In . SVG Version: 6.00 Build 0)  -->
<svg version="1.1" xmlns="http://www.w3.org/2000/svg" xmlns:xlink="http://www.w3.org/1999/xlink" x="0px" y="0px"
	 viewBox="0 0 2475 1650" style="enable-background:new 0 0 2475 1650;" xml:space="preserve">
<g id="Background">
	<rect style="fill:#FFFFFF;" width="2475" height="1650"/>
</g>
<g id="Illustration">
	<g>
		<linearGradient id="SVGID_1_" gradientUnits="userSpaceOnUse" x1="2078.7849" y1="768.238" x2="-120.2255" y2="776.5358">
			<stop  offset="0" style="stop-color:#DAE3FE"/>
			<stop  offset="1" style="stop-color:#E9EFFD"/>
		</linearGradient>
		<path style="fill:url(#SVGID_1_);" d="M264.591,1334.064c66.041,30.514,138.01,44.782,209.346,51.462
			c79.499,7.444,159.532,6.386,239.159,11.991c5.74,0.404,11.457,0.856,17.16,1.338c783.06,21.156,1354.207,20.757,1426.704,0
			c49.489-14.169,83.939-44.226,83.939-44.226c11.17-9.745,37.807-32.235,55.076-76.803c24.519-63.277,8.689-136.401,23.666-202.98
			c13.579-60.369,52.102-113.576,56.079-175.549c2.65-41.283-10.451-81.808-23.87-120.791
			c-55.689-161.777-131.688-297.307-265.613-400.073c-78.902-60.544-174.004-91.192-270.326-87.372
			c-109.793,4.355-243.391,41.735-340.278-34.357c-23.302-18.301-42.08-42.297-64.594-61.67
			c-83.068-71.482-190.295-65.285-233.51-65.092c-104.441,0.467-100.162,31.345-251.07,51.847
			c-105.148,14.285-162.333,22.054-235.885,2.509c-81.667-21.702-102.961-55.673-175.659-55.207
			c-18.806,0.121-90.323,0.578-143.037,47.679c-87.698,78.359-74.816,242.446-30.113,343.79
			c27.339,61.98,52.445,68.445,49.707,108.365c-3.282,47.855-43.911,67.568-146.754,194.66
			c-0.004,0.005-46.039,56.333-46.044,56.338c-68.479,83.79-99.207,198.702-70.239,306.553
			C149.586,1265.219,194.68,1301.761,264.591,1334.064z"/>
		<g>
			<g>
				<path style="fill:#91B3FA;" d="M757.981,1175.252c0,0,84.615-154.805-3.868-302.461
					c-82.097-137-295.893-452.698-283.144-634.308c0.565-8.045-14.801-4.878-20.048,4.151
					c-56.278,96.854-175.624,338.496-122.417,569.795C397.118,1110.701,757.981,1175.252,757.981,1175.252z"/>
				<path style="opacity:0.45;fill:#FFFFFF;" d="M436.629,408.336c-7.068,15.916-12.138,32.65-16.335,49.557
					c-4.108,16.937-7.293,34.134-9.258,51.495c-1.947,17.359-2.877,34.857-2.638,52.357c0.251,17.499,1.576,34.991,3.9,52.365
					c4.906,34.713,14.147,68.84,27.433,101.337l5.253,12.069c0.892,2.004,1.715,4.041,2.665,6.017l2.892,5.911l5.806,11.813
					l6.307,11.55l3.155,5.775c1.091,1.902,2.257,3.76,3.393,5.636l6.863,11.227c4.668,7.39,9.451,14.638,14.229,21.926
					c38.35,58.162,80.652,113.635,124.634,167.428c21.845,27.009,43.897,53.824,64.227,81.792
					c10.119,14.004,19.646,28.432,27.711,43.645c3.934,7.649,7.511,15.476,10.498,23.533c2.909,8.079,5.223,16.373,6.728,24.847
					l0.004,0.022c0.12,0.678,0.768,1.13,1.446,1.009c0.66-0.117,1.105-0.736,1.018-1.395c-1.176-8.696-3.188-17.267-5.822-25.647
					c-2.727-8.352-6.192-16.427-9.95-24.348c-7.742-15.731-16.965-30.645-26.754-45.088c-9.784-14.458-20.331-28.333-30.883-42.161
					c-10.59-13.803-21.322-27.469-32.014-41.151c-10.701-13.675-21.348-27.373-31.872-41.157
					c-10.595-13.729-21.071-27.541-31.343-41.497c-20.579-27.888-40.487-56.25-59.619-85.127
					c-4.738-7.239-9.516-14.493-14.115-21.789l-6.715-11.006c-1.106-1.842-2.269-3.651-3.349-5.507l-3.126-5.635l-6.257-11.271
					l-5.761-11.528l-2.873-5.769c-0.944-1.929-1.761-3.918-2.648-5.874l-5.225-11.781c-1.629-3.974-3.15-7.992-4.731-11.986
					l-2.352-6l-2.101-6.091c-1.388-4.065-2.866-8.102-4.183-12.191l-3.707-12.347c-4.645-16.544-8.517-33.33-11.167-50.337
					c-5.354-33.989-6.76-68.667-3.998-103.097c2.798-34.389,9.112-68.756,20.918-101.408c0.034-0.078-0.002-0.169-0.08-0.203
					C436.757,408.225,436.666,408.265,436.629,408.336z"/>
			</g>
			<g>
				<path style="fill:#BDD0FB;" d="M230.685,436.625c0.482-8.65,12.264-10.91,15.877-3.036
					c34.929,76.118,132.77,272.844,250.358,366.864c191.458,153.086,345.951,426.379,265.178,593.329
					C762.097,1393.782,178.229,1379.021,230.685,436.625z"/>
				<path style="opacity:0.43;fill:#FFFFFF;" d="M262.856,548.01c0.646,2.917,1.305,4.872,1.944,7.194l2.01,6.682l4.158,13.291
					l8.855,26.377c6.064,17.525,12.343,34.974,18.785,52.366c13.01,34.732,26.864,69.156,41.561,103.223
					c29.294,68.177,61.784,135.036,97.61,200.128c35.832,65.076,75.344,128.263,119.623,188.084
					c22.346,29.747,45.58,58.859,70.606,86.421c25.245,27.341,51.536,53.755,79.88,77.813c1.254,1.064,3.134,0.911,4.199-0.344
					c1.015-1.195,0.902-2.978-0.195-4.063c-52.609-51.772-98.959-109.206-141.495-169.243
					c-42.435-60.148-80.899-123.064-116.739-187.454c-35.762-64.45-68.692-130.502-99.626-197.511
					c-15.342-33.56-30.341-67.299-44.641-101.344c-7.21-16.998-14.265-34.066-21.107-51.217l-10.071-25.797l-4.946-12.923
					l-2.397-6.474l-2.123-6.07l-0.259-0.742c-0.534-1.529-2.208-2.336-3.737-1.801C263.334,545.102,262.538,546.578,262.856,548.01z
					"/>
			</g>
		</g>
		<g>
			<g>
				<path style="fill:#BDD0FB;" d="M2026.39,1223.355c0,0-58.064-106.228,2.655-207.55
					c56.336-94.01,203.044-310.644,194.295-435.266c-0.388-5.521,10.156-3.348,13.757,2.848
					c38.618,66.462,120.514,232.278,84.003,390.997C2274.016,1179.06,2026.39,1223.355,2026.39,1223.355z"/>
				<path style="opacity:0.45;fill:#FFFFFF;" d="M2246.709,697.178c8.101,22.406,12.434,45.989,14.354,69.587
					c1.895,23.626,0.93,47.422-2.743,70.746c-1.819,11.67-4.475,23.189-7.663,34.542l-2.544,8.472
					c-0.904,2.806-1.918,5.576-2.871,8.366l-1.442,4.18l-1.614,4.117c-1.085,2.741-2.129,5.498-3.247,8.225l-3.585,8.084
					c-0.609,1.342-1.169,2.707-1.817,4.031l-1.971,3.959l-3.953,7.911l-4.293,7.734l-2.146,3.867
					c-0.741,1.274-1.539,2.515-2.298,3.779l-4.607,7.552c-3.156,5.006-6.435,9.984-9.686,14.952
					c-13.129,19.816-26.79,39.278-40.911,58.415c-7.049,9.577-14.237,19.055-21.508,28.475
					c-7.222,9.459-14.528,18.858-21.871,28.242c-7.337,9.388-14.701,18.766-21.968,28.238c-7.241,9.489-14.478,19.01-21.192,28.931
					c-6.717,9.911-13.046,20.145-18.359,30.939c-2.579,5.435-4.957,10.976-6.828,16.708c-1.807,5.75-3.188,11.632-3.995,17.599
					c-0.063,0.468,0.265,0.899,0.733,0.963c0.456,0.062,0.876-0.248,0.957-0.696l0.003-0.017c1.033-5.815,2.621-11.506,4.617-17.05
					c2.05-5.529,4.505-10.9,7.204-16.148c5.534-10.439,12.072-20.34,19.016-29.949c13.951-19.192,29.083-37.593,44.073-56.126
					c30.181-36.913,59.209-74.979,85.525-114.89c3.279-5.001,6.561-9.975,9.764-15.046l4.709-7.704
					c0.78-1.287,1.58-2.562,2.328-3.867l2.165-3.963l4.328-7.926l3.984-8.106l1.984-4.056c0.652-1.356,1.217-2.754,1.829-4.129
					l3.605-8.282c9.117-22.299,15.458-45.718,18.825-69.538c1.594-11.922,2.504-23.925,2.676-35.933
					c0.164-12.009-0.474-24.015-1.81-35.927c-1.349-11.913-3.534-23.714-6.353-35.336c-2.88-11.602-6.359-23.085-11.209-34.007
					c-0.024-0.053-0.086-0.077-0.139-0.054C2246.712,697.062,2246.69,697.126,2246.709,697.178z"/>
			</g>
			<g>
				<path style="fill:#91B3FA;" d="M2271.856,236.427c3.818-6.991-6.113-12.018-14.343-7.305
					c-83.573,47.859-292.534,192.434-322.904,455.315c-38.104,329.822-160.77,446.851-292.49,516.498
					c0,0,162.698-29.676,292.619-148.26C2253.723,761.524,2203.969,360.72,2271.856,236.427z"/>
				<path style="opacity:0.47;fill:#FFFFFF;" d="M2186.953,335.77c-11.39,12.314-21.321,25.628-30.749,39.341
					c-2.32,3.449-4.763,6.823-6.983,10.336l-6.682,10.531l-3.338,5.271l-3.148,5.382l-6.298,10.769
					c-16.368,28.969-30.412,59.201-42.855,90.057l-9.008,23.281c-2.745,7.852-5.326,15.762-7.997,23.643l-3.975,11.834
					c-1.215,3.978-2.332,7.985-3.503,11.977l-6.949,23.978c-0.61,1.991-1.123,4.006-1.598,6.031l-1.481,6.061l-2.961,12.124
					l-2.961,12.127c-0.993,4.042-2.017,8.077-2.758,12.171l-4.874,24.482c-1.625,8.167-3.279,16.349-4.75,24.367
					c-12.028,64.55-33.992,127.005-61.196,186.809c-3.364,7.501-6.955,14.897-10.489,22.321
					c-3.657,7.364-7.278,14.747-11.091,22.033c-7.552,14.61-15.469,29.033-23.678,43.286c-8.185,14.267-16.718,28.337-25.595,42.176
					c-4.422,6.931-8.973,13.775-13.586,20.567c-4.594,6.772-9.332,13.582-14.126,20.021l-0.075,0.101
					c-1.95,2.62-1.408,6.324,1.211,8.274c2.598,1.935,6.267,1.414,8.229-1.151c10.272-13.436,19.649-27.076,28.783-41.052
					c9.115-13.944,17.876-28.111,26.288-42.483c8.389-14.385,16.374-29.004,24.051-43.782c3.869-7.374,7.545-14.848,11.256-22.303
					c3.588-7.516,7.234-15.006,10.651-22.604c3.528-7.547,6.783-15.219,10.136-22.846c3.194-7.697,6.438-15.373,9.401-23.165
					c6.125-15.503,11.67-31.236,16.868-47.081l3.793-11.92c1.26-3.974,2.369-7.998,3.56-11.994
					c2.431-7.979,4.465-16.076,6.636-24.13c4.036-16.191,7.792-32.466,10.661-48.922l8.906-48.71
					c0.671-4.064,1.625-8.066,2.547-12.075l2.748-12.034l2.748-12.036l1.374-6.019c0.439-2.011,0.916-4.013,1.49-5.989l6.516-23.813
					c1.099-3.966,2.144-7.949,3.286-11.901l3.755-11.758c2.525-7.832,4.96-15.698,7.558-23.507l8.386-23.223
					c11.592-30.804,24.794-61.054,40.323-90.111l5.899-10.854l2.951-5.429l3.139-5.318l6.289-10.636
					c2.091-3.551,4.401-6.959,6.592-10.447c2.214-3.473,4.413-6.96,6.792-10.318c2.361-3.37,4.606-6.833,7.066-10.131
					c4.827-6.646,9.772-13.304,15.118-19.435l0.051-0.058c0.575-0.66,0.507-1.661-0.153-2.237
					C2188.511,335.087,2187.533,335.145,2186.953,335.77z"/>
			</g>
		</g>
		<g>
			
				<linearGradient id="SVGID_00000018229869010429444750000014684350894452954813_" gradientUnits="userSpaceOnUse" x1="2383.5374" y1="1019.9874" x2="720.9469" y2="641.5114" gradientTransform="matrix(0.9999 -0.0103 0.0103 0.9999 -16.6087 -12.1336)">
				<stop  offset="0" style="stop-color:#E1473D"/>
				<stop  offset="1" style="stop-color:#E9605A"/>
			</linearGradient>
			<path style="fill:url(#SVGID_00000018229869010429444750000014684350894452954813_);" d="M2151.408,953.92
				c-28.146-162.594-144.801-288.655-253.099-388.79c-81.137-75.021-165.748-145.801-252.518-212.166
				c-66.761-51.061-145.864-103.147-221.954-134.163c-41.646-16.976-86.181-28.524-130.044-21.841
				c-81.358,12.396-120.642,64.146-131.584,156.114c-6.128,51.504,6.247,145.125-49.731,157.101
				c-48.869,10.455-98.125-20.684-143.845-36.419c-15.585-5.364-31.367-10.767-47.633-11.604
				c-53.456-2.751-100.909,46.067-119.669,103.081c-38.899,118.212,56.183,254.401,121.13,339.683
				c75.477,99.11,166.776,181.432,260.911,256.348c158.978,126.518,346.46,220.365,541.426,238.16
				c117.613,10.735,246.131-12.265,332.793-109.872C2133.698,1203.831,2172.234,1074.224,2151.408,953.92z M1317.996,434.811
				c-55.478-19.285-91.404-68.603-80.245-110.155c11.16-41.552,65.18-59.602,120.658-40.317
				c55.478,19.285,91.404,68.603,80.245,110.155C1427.493,436.045,1373.473,454.096,1317.996,434.811z"/>
			
				<linearGradient id="SVGID_00000086650218559024008600000000340413231688574104_" gradientUnits="userSpaceOnUse" x1="1510.6003" y1="894.6453" x2="1708.5604" y2="1848.454">
				<stop  offset="0" style="stop-color:#FE7062"/>
				<stop  offset="1" style="stop-color:#FF928E"/>
			</linearGradient>
			<path style="fill:url(#SVGID_00000086650218559024008600000000340413231688574104_);" d="M2161.676,939.962
				c-27.89-161.112-143.482-286.025-250.793-385.247c-80.398-74.338-164.238-144.473-250.218-210.233
				c-66.153-50.596-144.535-102.207-219.932-132.941c-41.266-16.821-85.396-28.264-128.859-21.642
				c-80.617,12.283-119.543,63.562-130.385,154.692c-6.072,51.034,6.19,143.802-49.278,155.669
				c-48.424,10.36-97.231-20.496-142.534-36.087c-15.443-5.315-31.082-10.669-47.199-11.499
				c-52.969-2.726-99.989,45.647-118.579,102.141c-38.545,117.135,55.671,252.083,120.026,336.589
				c74.79,98.207,165.256,179.779,258.534,254.012c157.529,125.366,343.304,218.357,536.493,235.99
				c116.542,10.637,243.889-12.153,329.76-108.871C2144.128,1187.596,2182.312,1059.17,2161.676,939.962z M1335.857,425.582
				c-54.972-19.109-90.572-67.978-79.513-109.151c11.058-41.173,64.586-59.059,119.558-39.95
				c54.972,19.11,90.571,67.978,79.513,109.151C1444.358,426.805,1390.829,444.691,1335.857,425.582z"/>
			
				<linearGradient id="SVGID_00000036931831083801968390000002337253344340955281_" gradientUnits="userSpaceOnUse" x1="-599.6224" y1="-540.0276" x2="881.901" y2="1566.099" gradientTransform="matrix(0.802 0.5974 -0.5974 0.802 1179.2039 -686.3931)">
				<stop  offset="0" style="stop-color:#E1473D"/>
				<stop  offset="1" style="stop-color:#E9605A"/>
			</linearGradient>
			
				<ellipse style="fill:url(#SVGID_00000036931831083801968390000002337253344340955281_);" cx="962.04" cy="686.954" rx="87.574" ry="99.631"/>
			<ellipse style="fill:#BDD0FB;" cx="953.765" cy="682.75" rx="68.66" ry="78.113"/>
			
				<linearGradient id="SVGID_00000085233532067740906630000018373487106475651736_" gradientUnits="userSpaceOnUse" x1="1401.1927" y1="909.9142" x2="1064.7218" y2="1005.511" gradientTransform="matrix(0.9999 -0.0103 0.0103 0.9999 -16.6087 -12.1336)">
				<stop  offset="0" style="stop-color:#E1473D"/>
				<stop  offset="1" style="stop-color:#E9605A"/>
			</linearGradient>
			
				<ellipse style="fill:url(#SVGID_00000085233532067740906630000018373487106475651736_);" cx="1149.446" cy="955.415" rx="87.574" ry="99.631"/>
			<ellipse style="fill:#BDD0FB;" cx="1149.446" cy="955.415" rx="80.65" ry="91.754"/>
			
				<linearGradient id="SVGID_00000171697195039348708820000018133225730632110222_" gradientUnits="userSpaceOnUse" x1="1664.4397" y1="1002.9337" x2="1273.9398" y2="1338.6909" gradientTransform="matrix(0.9999 -0.0103 0.0103 0.9999 -16.6087 -12.1336)">
				<stop  offset="0" style="stop-color:#E1473D"/>
				<stop  offset="1" style="stop-color:#E9605A"/>
			</linearGradient>
			
				<ellipse style="fill:url(#SVGID_00000171697195039348708820000018133225730632110222_);" cx="1442.17" cy="1163.026" rx="87.574" ry="99.632"/>
			
				<linearGradient id="SVGID_00000160155171329130679920000018051521549539805090_" gradientUnits="userSpaceOnUse" x1="1366.4696" y1="1162.9369" x2="1516.2292" y2="1162.9369">
				<stop  offset="0" style="stop-color:#FE7062"/>
				<stop  offset="1" style="stop-color:#FF928E"/>
			</linearGradient>
			
				<ellipse style="fill:url(#SVGID_00000160155171329130679920000018051521549539805090_);" cx="1441.349" cy="1162.937" rx="74.875" ry="85.184"/>
			
				<linearGradient id="SVGID_00000152227416362434305250000004680175855918522045_" gradientUnits="userSpaceOnUse" x1="1801.9493" y1="1119.1775" x2="1606.7795" y2="1462.5781" gradientTransform="matrix(0.9999 -0.0103 0.0103 0.9999 -16.6087 -12.1336)">
				<stop  offset="0" style="stop-color:#E1473D"/>
				<stop  offset="1" style="stop-color:#E9605A"/>
			</linearGradient>
			
				<ellipse style="fill:url(#SVGID_00000152227416362434305250000004680175855918522045_);" cx="1702.022" cy="1259.005" rx="87.574" ry="99.631"/>
			
				<linearGradient id="SVGID_00000183931974267492577180000007491897262391378050_" gradientUnits="userSpaceOnUse" x1="1627.7578" y1="1261.6001" x2="1772.8867" y2="1261.6001">
				<stop  offset="0" style="stop-color:#E1473D"/>
				<stop  offset="1" style="stop-color:#E9605A"/>
			</linearGradient>
			
				<ellipse style="fill:url(#SVGID_00000183931974267492577180000007491897262391378050_);" cx="1700.322" cy="1261.6" rx="72.56" ry="82.55"/>
			
				<linearGradient id="SVGID_00000142863545163602044620000014504791785493597323_" gradientUnits="userSpaceOnUse" x1="2114.2612" y1="880.4061" x2="1919.5848" y2="1332.155" gradientTransform="matrix(0.9999 -0.0103 0.0103 0.9999 -16.6087 -12.1336)">
				<stop  offset="0" style="stop-color:#E1473D"/>
				<stop  offset="1" style="stop-color:#E9605A"/>
			</linearGradient>
			
				<ellipse style="fill:url(#SVGID_00000142863545163602044620000014504791785493597323_);" cx="1957.324" cy="1202.646" rx="87.574" ry="99.631"/>
			
				<linearGradient id="SVGID_00000037685907407540141060000001180093388339723926_" gradientUnits="userSpaceOnUse" x1="2173.9673" y1="912.6835" x2="1947.3906" y2="1256.3246" gradientTransform="matrix(0.9999 -0.0103 0.0103 0.9999 -16.6087 -12.1336)">
				<stop  offset="0" style="stop-color:#FF928E"/>
				<stop  offset="1" style="stop-color:#FEB3B1"/>
			</linearGradient>
			
				<ellipse style="fill:url(#SVGID_00000037685907407540141060000001180093388339723926_);" cx="1955.658" cy="1205.19" rx="80.609" ry="91.707"/>
			
				<linearGradient id="SVGID_00000139254652372098742870000000165453455001466267_" gradientUnits="userSpaceOnUse" x1="2102.7598" y1="801.0198" x2="1999.7524" y2="1112.5547" gradientTransform="matrix(0.9999 -0.0103 0.0103 0.9999 -16.6087 -12.1336)">
				<stop  offset="0" style="stop-color:#E1473D"/>
				<stop  offset="1" style="stop-color:#E9605A"/>
			</linearGradient>
			
				<ellipse style="fill:url(#SVGID_00000139254652372098742870000000165453455001466267_);" cx="2036.154" cy="948.935" rx="87.574" ry="99.631"/>
			<ellipse style="fill:#7D97F4;" cx="2035.212" cy="950.375" rx="79.279" ry="90.194"/>
			
				<linearGradient id="SVGID_00000126315550638739039360000004835909737684903101_" gradientUnits="userSpaceOnUse" x1="1359.3403" y1="56.4106" x2="1248.3292" y2="452.4513">
				<stop  offset="0" style="stop-color:#E1473D"/>
				<stop  offset="1" style="stop-color:#E9605A"/>
			</linearGradient>
			<path style="fill:url(#SVGID_00000126315550638739039360000004835909737684903101_);" d="M1237.828,488.786L1130.39,598.258
				c-17.596,17.929-19.085,48.691-3.326,68.709l23.429,29.761c18.491,23.49,51.436,21.073,67.122-4.925l84.01-139.234
				c10.891-18.051,9.845-42.155-2.558-58.896l0,0C1283.519,472.687,1255.799,470.474,1237.828,488.786z"/>
			
				<linearGradient id="SVGID_00000081625735987554061710000003686945216675868088_" gradientUnits="userSpaceOnUse" x1="1518.9543" y1="101.1518" x2="1407.9432" y2="497.1924">
				<stop  offset="0" style="stop-color:#E1473D"/>
				<stop  offset="1" style="stop-color:#E9605A"/>
			</linearGradient>
			<path style="fill:url(#SVGID_00000081625735987554061710000003686945216675868088_);" d="M1332.4,573.631l-64.774,157.3
				c-9.347,22.698-2.818,49.758,15.404,63.847l46.195,35.718c27.969,21.626,66.113,1.597,69.794-36.647l18.579-193.019
				c2.063-21.43-7.936-42.023-24.979-51.446l0,0C1370.115,536.943,1343.014,547.855,1332.4,573.631z"/>
			
				<linearGradient id="SVGID_00000017517249519984480420000010104927940205066388_" gradientUnits="userSpaceOnUse" x1="1720.6091" y1="157.6745" x2="1609.5981" y2="553.7148">
				<stop  offset="0" style="stop-color:#E1473D"/>
				<stop  offset="1" style="stop-color:#E9605A"/>
			</linearGradient>
			<path style="fill:url(#SVGID_00000017517249519984480420000010104927940205066388_);" d="M1490.75,560.397
				c-11.44,6.192-21.176,16.014-20.033,32.112c5.884,82.842,9.856,165.873,16.67,248.629c0.916,11.131,0.949,23.78,4.075,34.391
				c44.258,2.613,89.544,10.261,133.828,9.745c21.456,1.665,35.779-24.69,24.888-45.787c-20.796-46.13-45.904-89.468-69.156-133.991
				c-24.858-47.599-49.276-95.502-73.913-143.249C1502.532,553.38,1497.432,556.78,1490.75,560.397z"/>
			
				<linearGradient id="SVGID_00000032635747758403616240000010168356685532513691_" gradientUnits="userSpaceOnUse" x1="1816.4467" y1="184.5403" x2="1705.4354" y2="580.5816">
				<stop  offset="0" style="stop-color:#E1473D"/>
				<stop  offset="1" style="stop-color:#E9605A"/>
			</linearGradient>
			<path style="fill:url(#SVGID_00000032635747758403616240000010168356685532513691_);" d="M1546.834,536.001
				c37.763,52.415,135.769,198.932,184.701,272.363c14.295,21.452,42.729,21.145,56.665-0.609l70.476-110.01
				c11.934-18.629,7.668-44.839-9.339-57.371l-247.549-182.413c-17.574-12.95-41.137-5.753-50.647,15.47l-8.455,18.867
				C1536.316,506.512,1537.943,523.661,1546.834,536.001z"/>
		</g>
		<g>
			<path style="fill:#91B3FA;" d="M670.439,1438.381c-0.714,0-1.438-0.041-2.164-0.124c-10.294-1.182-17.679-10.484-16.495-20.78
				L769.538,392.726c1.182-10.287,10.502-17.661,20.777-16.492c10.294,1.181,17.679,10.483,16.495,20.78L689.052,1421.765
				C687.953,1431.328,679.842,1438.381,670.439,1438.381z"/>
			<path style="fill:#91B3FA;" d="M1317.761,1438.386c-8.585,0-16.33-5.931-18.288-14.661L1069.709,398.973
				c-2.265-10.108,4.092-20.143,14.203-22.41c10.087-2.249,20.141,4.09,22.41,14.202l229.762,1024.752
				c2.267,10.108-4.09,20.143-14.201,22.41C1320.503,1438.235,1319.122,1438.386,1317.761,1438.386z"/>
			<path style="fill:#91B3FA;" d="M929.743,1438.381c-10.36,0-18.76-8.4-18.76-18.76V913.889c0-10.36,8.4-18.76,18.76-18.76
				c10.36,0,18.76,8.4,18.76,18.76v505.733C948.503,1429.981,940.103,1438.381,929.743,1438.381z"/>
			
				<linearGradient id="SVGID_00000075884423579772181540000004857661233697844390_" gradientUnits="userSpaceOnUse" x1="1010.8012" y1="390.4758" x2="758.3925" y2="2004.7208">
				<stop  offset="0" style="stop-color:#4042E2"/>
				<stop  offset="1" style="stop-color:#4F52FF"/>
			</linearGradient>
			<path style="fill:url(#SVGID_00000075884423579772181540000004857661233697844390_);" d="M554.307,280.223l65.957,830.759
				c1.395,17.571,16.28,30.988,33.901,30.558l688.872-16.802c20.083-0.49,35.132-18.566,31.974-38.405l-131.877-828.379
				c-2.611-16.404-16.945-28.352-33.551-27.967L586.63,244.409C567.57,244.85,552.798,261.218,554.307,280.223z"/>
			<path style="fill:#7D97F4;" d="M611.969,267.277l577.677-13.374c16.606-0.384,30.94,11.564,33.551,27.968l124.439,781.67
				c3.158,19.839-11.891,37.914-31.974,38.405l-639.877,15.607c-17.621,0.43-32.506-12.987-33.901-30.558L579.646,303.09
				C578.136,284.086,592.909,267.718,611.969,267.277z"/>
			
				<linearGradient id="SVGID_00000060712494916501620280000017259112009758277030_" gradientUnits="userSpaceOnUse" x1="626.614" y1="688.7997" x2="1317.0587" y2="688.7997">
				<stop  offset="0" style="stop-color:#DAE3FE"/>
				<stop  offset="1" style="stop-color:#E9EFFD"/>
			</linearGradient>
			<path style="fill:url(#SVGID_00000060712494916501620280000017259112009758277030_);" d="M655.749,312.858l518.992-12.015
				c14.919-0.345,27.797,10.389,30.143,25.127l111.797,702.262c2.838,17.823-10.683,34.063-28.725,34.503l-574.873,14.022
				c-15.831,0.386-29.204-11.668-30.457-27.454l-55.917-704.269C625.353,327.959,638.625,313.254,655.749,312.858z"/>
			<g>
				
					<linearGradient id="SVGID_00000119095161057763940500000001977732374934781862_" gradientUnits="userSpaceOnUse" x1="1401.0123" y1="95.2861" x2="668.264" y2="1119.1254">
					<stop  offset="0" style="stop-color:#FE7062"/>
					<stop  offset="1" style="stop-color:#FF928E"/>
				</linearGradient>
				<path style="fill:url(#SVGID_00000119095161057763940500000001977732374934781862_);" d="M1054.184,1000.611
					c0,0-273.358,9.019-318.668-160.772c-36.416-136.459,72.615,1.892,199.4,86.008c9.95,6.601,20.345-7.725,10.981-15.134
					c-92.002-72.785-224.54-191.449-202.443-255.781c33.359-97.116,43.439-44.053,132.489,66.843
					c89.05,110.896,133.148,106.156,84.462,24.621c-48.685-81.536-185.607-153.613-177.278-209.383
					c8.329-55.77,59.15-131.09,77.109-167.505c17.958-36.414,191.331,60.05,191.015,131.856
					c-0.316,71.807-51.762,179.722-24.048,237.717c27.714,57.995,53.275-58.049,61.889-122.671
					c8.614-64.622,24.768-102.585,72.193-36.111s6.36,165.7-40.54,223c-46.9,57.3-56.655,106.354-31.418,80.105
					c25.237-26.249,96.191-113.395,102.328-155.277C1197.793,686.244,1296.587,847.035,1054.184,1000.611z"/>
				
					<linearGradient id="SVGID_00000072245740729713217050000011717546863792837026_" gradientUnits="userSpaceOnUse" x1="916.933" y1="752.7803" x2="1045.8259" y2="752.7803">
					<stop  offset="0" style="stop-color:#FF928E"/>
					<stop  offset="1" style="stop-color:#FEB3B1"/>
				</linearGradient>
				<path style="fill:url(#SVGID_00000072245740729713217050000011717546863792837026_);" d="M1042.389,991.215
					c-0.783-0.366-1.344-1.14-1.389-2.067c-10.668-209.288-122.733-469.052-123.865-471.649c-0.533-1.224,0.027-2.644,1.252-3.18
					c1.218-0.529,2.644,0.03,3.177,1.253c1.136,2.606,113.548,263.156,124.259,473.334c0.069,1.329-0.956,2.464-2.289,2.534
					C1043.124,991.461,1042.735,991.377,1042.389,991.215z"/>
			</g>
		</g>
		<g>
			
				<linearGradient id="SVGID_00000111884564717419519220000013055988677221526669_" gradientUnits="userSpaceOnUse" x1="-2433.3416" y1="573.4471" x2="-2360.1563" y2="757.0307" gradientTransform="matrix(-1 0 0 1 -1876.2421 0)">
				<stop  offset="0" style="stop-color:#09005D"/>
				<stop  offset="1" style="stop-color:#1A0F91"/>
			</linearGradient>
			<path style="fill:url(#SVGID_00000111884564717419519220000013055988677221526669_);" d="M485.256,669.915
				c-3.75,2.052-7.392,4.465-11.505,5.538c-13.615,3.551-21.349,1.743-32.034,12.974c-7.375,7.751-12.041,18.197-12.46,28.921
				c-0.646,16.534,7.537,34.819-1.576,48.631c-7.307,11.074-23.441,14.565-28.997,26.612c-5.594,12.128,2.342,25.779,8.916,37.405
				c6.573,11.627,11.39,27.867,1.654,37.01c-3.944,3.704-9.417,5.19-14.165,7.783c-10.45,5.707-17.367,17.747-16.125,29.589
				c1.242,11.842,11.121,22.48,22.961,23.743c17.225,1.837,20.618,5.241,29.771,19.517c5.928,9.246,18.277,13.503,28.898,10.708
				c10.622-2.795,19.048-12.008,21.788-22.644c3.082-11.961-0.369-25.213,4.407-36.604c3.66-8.73,11.327-15.457,16.972-22.889
				c2.989-3.934,12.793-14.431,13.107-19.199c1.907-28.922,3.814-57.844,5.721-86.766c0.943-14.297,4.258-30.496,2.953-44.787
				c-0.509-5.577-0.712-5.257-3.318-11.223c-2.83-6.478-4.536-8.045-5.309-15.131c-0.817-7.493,0.81-13.857-2.999-21.054
				c-3.866-7.306-12.1-12.66-20.262-11.355C490.659,667.172,487.93,668.452,485.256,669.915z"/>
			
				<linearGradient id="SVGID_00000079477733744686068090000004411626647243298960_" gradientUnits="userSpaceOnUse" x1="-2527.1072" y1="679.1376" x2="-2418.2778" y2="926.7489" gradientTransform="matrix(-1 0 0 1 -1876.2421 0)">
				<stop  offset="0" style="stop-color:#FF928E"/>
				<stop  offset="1" style="stop-color:#FEB3B1"/>
			</linearGradient>
			<path style="fill:url(#SVGID_00000079477733744686068090000004411626647243298960_);" d="M701.078,601.38
				c0,0-56.496,154.012-152.76,202.148c0,0,32.04,52.277,48.761,55.448c0,0,102.835-131.617,113.319-239.448L701.078,601.38z"/>
			
				<linearGradient id="SVGID_00000119117910054871811790000003627112720584582847_" gradientUnits="userSpaceOnUse" x1="-2190.2327" y1="1543.9869" x2="-2140.3818" y2="1543.9869" gradientTransform="matrix(-1 0 0 1 -1876.2421 0)">
				<stop  offset="0" style="stop-color:#09005D"/>
				<stop  offset="1" style="stop-color:#1A0F91"/>
			</linearGradient>
			<path style="fill:url(#SVGID_00000119117910054871811790000003627112720584582847_);" d="M313.931,1527.812l-2.841,23.357
				c-0.539,4.431-11.052,15.683-15.487,16.19c-7.487,0.855-10.734,2.553-22.49,1.31c-5.16-0.546-10.255-14.34-8.683-19.285
				c2.866-9.017,8.109-22.552,15.668-30.517h25.91C310.798,1518.866,314.509,1523.056,313.931,1527.812z"/>
			
				<linearGradient id="SVGID_00000050641713988931729520000017729782228529022850_" gradientUnits="userSpaceOnUse" x1="-2401.302" y1="1736.7711" x2="-2329.4187" y2="896.634" gradientTransform="matrix(-1 0 0 1 -1876.2421 0)">
				<stop  offset="0" style="stop-color:#FF928E"/>
				<stop  offset="1" style="stop-color:#FEB3B1"/>
			</linearGradient>
			<path style="fill:url(#SVGID_00000050641713988931729520000017729782228529022850_);" d="M516.867,1254.201l4.373,25.725
				c0,0-14.645,148.341-17.25,207.678c-0.408,9.303,1.998,18.496,6.881,26.425l25.465,41.353l-64.719-38.19l-1.288-7.898
				l10.594-14.567l-13.877-166.179c-0.815-9.762,1.199-19.553,5.802-28.2l13.387-25.149L516.867,1254.201z"/>
			
				<linearGradient id="SVGID_00000030480437057940007200000003454666513089054133_" gradientUnits="userSpaceOnUse" x1="-2422.3015" y1="1530.6714" x2="-2341.4766" y2="1530.6714" gradientTransform="matrix(-1 0 0 1 -1876.2421 0)">
				<stop  offset="0" style="stop-color:#09005D"/>
				<stop  offset="1" style="stop-color:#1A0F91"/>
			</linearGradient>
			<path style="fill:url(#SVGID_00000030480437057940007200000003454666513089054133_);" d="M540.598,1561.373h-20.653
				c-3.866,0-7.512-1.775-9.869-4.839c-6.439-8.366-19.778-24.688-26.157-25.114c-8.587-0.573-7.488,29.953-7.488,29.953h-4.813
				l-6.097-37.933c-1.534-9.544,3.213-18.999,11.783-23.471l0,0c0,0,1.963,14.516,12.606,20.937
				c10.643,6.421,43.311,29.415,43.311,29.415s4.001-0.57,8.394,0.224C548.131,1551.723,547.22,1561.373,540.598,1561.373z"/>
			
				<linearGradient id="SVGID_00000130626534443806535620000013905616222132516481_" gradientUnits="userSpaceOnUse" x1="-2256.7043" y1="1749.2722" x2="-2184.802" y2="908.9138" gradientTransform="matrix(-1 0 0 1 -1876.2421 0)">
				<stop  offset="0" style="stop-color:#FF928E"/>
				<stop  offset="1" style="stop-color:#FEB3B1"/>
			</linearGradient>
			<path style="fill:url(#SVGID_00000130626534443806535620000013905616222132516481_);" d="M428.223,1266.42
				c0,0-85.795,162.744-99.433,199.901c-13.638,37.157-18.416,68.154-18.599,71.089c-0.286,4.587-5.991,8.986-21.716,8.986
				c-8.116,0-12.09-3.253-14.036-6.402c-1.661-2.687-1.746-6.048-0.347-8.88c4.963-10.043,20.712-42.141,26.545-56.698
				c6.964-17.381,21.944-96.15,30.16-123.537c8.215-27.387,17.502-57.095,53.279-84.46
				C384.076,1266.42,408.636,1242.365,428.223,1266.42z"/>
			
				<linearGradient id="SVGID_00000094577110331115298850000004510279888463543726_" gradientUnits="userSpaceOnUse" x1="544.7563" y1="802.4926" x2="321.6528" y2="1569.6553">
				<stop  offset="0" style="stop-color:#4042E2"/>
				<stop  offset="1" style="stop-color:#4F52FF"/>
			</linearGradient>
			<path style="fill:url(#SVGID_00000094577110331115298850000004510279888463543726_);" d="M482.421,999.755
				c22.131-93.779-33.934-146.819-33.934-146.819c35.376-33.957,99.83-49.408,99.83-49.408s61.503,44.964,54.207,80.159
				c-4.276,20.628-43.231,123.556-43.231,123.556S523.272,1024.291,482.421,999.755z"/>
			
				<linearGradient id="SVGID_00000018217908819447057050000009476689837184010128_" gradientUnits="userSpaceOnUse" x1="14.1034" y1="1418.4327" x2="462.1032" y2="1162.4327">
				<stop  offset="0" style="stop-color:#09005D"/>
				<stop  offset="1" style="stop-color:#1A0F91"/>
			</linearGradient>
			<path style="fill:url(#SVGID_00000018217908819447057050000009476689837184010128_);" d="M433.353,1046.182
				c9.007-27.133,49.068-46.427,49.068-46.427c40.852,24.536,76.873,7.488,76.873,7.488s8.078,30.878,2.503,59.573
				c-5.576,28.695-40.556,213.11-40.556,213.11c-55.118,11.168-139.888-11.236-139.888-11.236
				C416.46,1206.359,424.346,1073.315,433.353,1046.182z"/>
			
				<linearGradient id="SVGID_00000176013195637534864080000013846963281183294122_" gradientUnits="userSpaceOnUse" x1="-2409.1853" y1="908.6475" x2="-2395.6821" y2="809.8623" gradientTransform="matrix(-1 0 0 1 -1876.2421 0)">
				<stop  offset="0" style="stop-color:#FF928E"/>
				<stop  offset="1" style="stop-color:#FEB3B1"/>
			</linearGradient>
			<path style="fill:url(#SVGID_00000176013195637534864080000013846963281183294122_);" d="M508.11,741.556l-17.993,80.821
				c-1.723,7.119,4.767,5.954,11.964,4.597c11.787-2.222,26.979-6.799,32.057-15.971c0.517-0.933,0.775-1.989,0.921-3.046
				l7.73-56.043c0.613-4.446-1.79-8.762-5.893-10.581l-14.917-6.614C516.235,732.172,509.587,735.45,508.11,741.556z"/>
			
				<linearGradient id="SVGID_00000148657534374204059590000012647033670648889250_" gradientUnits="userSpaceOnUse" x1="-2353.5325" y1="956.7859" x2="-2263.833" y2="956.7859" gradientTransform="matrix(-1 0 0 1 -1876.2421 0)">
				<stop  offset="0" style="stop-color:#FF928E"/>
				<stop  offset="1" style="stop-color:#FEB3B1"/>
			</linearGradient>
			<path style="fill:url(#SVGID_00000148657534374204059590000012647033670648889250_);" d="M448.487,852.936
				c0,0-125.583,89.848-16.061,184.26c0,0,4.176,4.725,12.392,7.18c4.147,1.24,16.417,10.522,22.637,15.362
				c2,1.556,4.889,1.026,6.233-1.121l0,0c1.053-1.683,1.177-3.786,0.328-5.581l-15.547-32.876
				c-4.317-4.029-10.926-4.315-15.576-0.674l0,0c-2.966,2.323-7.311,1.35-8.971-2.032c-8.466-17.244-24.453-67.958,40.98-125.264
				c2.46-2.155,3.082-5.717,1.572-8.618C471.878,874.741,461.364,857.203,448.487,852.936z"/>
			<g>
				
					<linearGradient id="SVGID_00000135683667756618849510000006986269050161906093_" gradientUnits="userSpaceOnUse" x1="-2443.2676" y1="794.293" x2="-2325.4526" y2="584.6218" gradientTransform="matrix(-1 0 0 1 -1876.2421 0)">
					<stop  offset="0" style="stop-color:#FF928E"/>
					<stop  offset="1" style="stop-color:#FEB3B1"/>
				</linearGradient>
				<path style="fill:url(#SVGID_00000135683667756618849510000006986269050161906093_);" d="M529.221,677.612
					c0,0,21.31,8.998,35.799,39.792c14.489,30.793,3.669,45.011-9.923,46.963c-13.591,1.952-33.917,1.655-55.417-18.237
					C478.181,726.238,501.519,666.946,529.221,677.612z"/>
				
					<linearGradient id="SVGID_00000058578151714854036780000003984419896296890020_" gradientUnits="userSpaceOnUse" x1="-2417.9314" y1="611.7024" x2="-2359.0242" y2="759.47" gradientTransform="matrix(-1 0 0 1 -1876.2421 0)">
					<stop  offset="0" style="stop-color:#09005D"/>
					<stop  offset="1" style="stop-color:#1A0F91"/>
				</linearGradient>
				<path style="fill:url(#SVGID_00000058578151714854036780000003984419896296890020_);" d="M514.133,729.69
					c0,0-16.077-45.052,23.865-45.585l9.399,6.569c0,0,14.656-24.978-9.399-36.902c-24.055-11.923-52.207-2.074-62.443,30.333
					c-10.236,32.407-11.984,54.101,5.046,69.606c17.03,15.505,24.049-2.075,24.049-2.075s-9.274-14.502-5.498-22.261
					c3.775-7.759,12.483,1.605,12.483,1.605L514.133,729.69z"/>
				
					<linearGradient id="SVGID_00000018224617748407011440000016952279712052755343_" gradientUnits="userSpaceOnUse" x1="-2418.1892" y1="808.3846" x2="-2300.3745" y2="598.7141" gradientTransform="matrix(-1 0 0 1 -1876.2421 0)">
					<stop  offset="0" style="stop-color:#FF928E"/>
					<stop  offset="1" style="stop-color:#FEB3B1"/>
				</linearGradient>
				<path style="fill:url(#SVGID_00000018224617748407011440000016952279712052755343_);" d="M509.654,734.708
					c0,0-8.129-23.208-18.973-13.965c-10.844,9.242,8.813,21.437,16.509,25.387L509.654,734.708z"/>
			</g>
			<g>
				
					<linearGradient id="SVGID_00000135655068336007006750000006064672761859050636_" gradientUnits="userSpaceOnUse" x1="-2548.6125" y1="688.59" x2="-2439.783" y2="936.2015" gradientTransform="matrix(-1 0 0 1 -1876.2421 0)">
					<stop  offset="0" style="stop-color:#FF928E"/>
					<stop  offset="1" style="stop-color:#FEB3B1"/>
				</linearGradient>
				<path style="fill:url(#SVGID_00000135655068336007006750000006064672761859050636_);" d="M706.5,629.413
					c0.862,2.74-9.12,6.913-14.997-4.295c-0.205-5.371-3.472-28.382-0.262-32.758c17.094-23.305,50.235-52.518,50.235-52.518
					c5.601,5.527,0.987,10.956,0.987,10.956l-16.077,16.748c3.362,6.077,7.464,11.206,9.387,18.557
					c1.456,5.566,0.565,11.515-2.246,16.581c-2.822,5.084-6.672,11.693-10.312,16.866C716.325,629.339,706.5,629.413,706.5,629.413z
					"/>
			</g>
		</g>
		<g>
			<g>
				
					<linearGradient id="SVGID_00000121238716515118781710000001096918247438582679_" gradientUnits="userSpaceOnUse" x1="2014.7123" y1="423.6414" x2="1879.7189" y2="482.1385">
					<stop  offset="0" style="stop-color:#FF928E"/>
					<stop  offset="1" style="stop-color:#FEB3B1"/>
				</linearGradient>
				<path style="fill:url(#SVGID_00000121238716515118781710000001096918247438582679_);" d="M1751.004,470.831
					c-30.303,41.767-21.59,86.854,39.183,117.189c4.278-3.89,5.481-7.534,1.182-15.761c-48.426-34.869-41.018-66.513-11.243-86.606
					L1751.004,470.831z"/>
				
					<linearGradient id="SVGID_00000110462721450494765080000000987116928020618428_" gradientUnits="userSpaceOnUse" x1="1961.9714" y1="449.8802" x2="1871.9757" y2="515.877">
					<stop  offset="0" style="stop-color:#FF928E"/>
					<stop  offset="1" style="stop-color:#FEB3B1"/>
				</linearGradient>
				<path style="fill:url(#SVGID_00000110462721450494765080000000987116928020618428_);" d="M1814.29,489.839
					c-24.264,43.286-18.956,77.065,50.793,99.435c3.82-9.874,2.233-15.35-3.688-17.299c-52.796-26.526-39.331-47.367-13.121-69.862
					L1814.29,489.839z"/>
				
					<linearGradient id="SVGID_00000042017162779185436680000002401778110425475465_" gradientUnits="userSpaceOnUse" x1="-4330.8032" y1="-2079.4028" x2="-4357.3018" y2="-2199.3967" gradientTransform="matrix(-0.5875 -0.8093 -0.8093 0.5875 -2670.1841 -1556.3311)">
					<stop  offset="0" style="stop-color:#09005D"/>
					<stop  offset="1" style="stop-color:#1A0F91"/>
				</linearGradient>
				<path style="fill:url(#SVGID_00000042017162779185436680000002401778110425475465_);" d="M1865.074,574.031
					c1.989,8.355,1.067,12.682-5.268,14.412c-3.821,13.686-1.714,21.263,4.828,24.272c8.141-11.57,14.308-23.988,16.308-38.196
					C1874.897,572.282,1866.517,570.334,1865.074,574.031z"/>
				
					<linearGradient id="SVGID_00000047034772879897412110000008424267938857094554_" gradientUnits="userSpaceOnUse" x1="-4300.3921" y1="-2086.1201" x2="-4326.8911" y2="-2206.114" gradientTransform="matrix(-0.5875 -0.8093 -0.8093 0.5875 -2670.1841 -1556.3311)">
					<stop  offset="0" style="stop-color:#09005D"/>
					<stop  offset="1" style="stop-color:#1A0F91"/>
				</linearGradient>
				<path style="fill:url(#SVGID_00000047034772879897412110000008424267938857094554_);" d="M1791.369,572.259
					c1.977,8.306,1.06,12.607-5.237,14.326c-3.798,13.604-1.703,21.136,4.799,24.128c8.093-11.502,14.223-23.846,16.211-37.969
					C1801.133,570.521,1792.803,568.584,1791.369,572.259z"/>
				
					<linearGradient id="SVGID_00000174561406943138350260000012658971730423168411_" gradientUnits="userSpaceOnUse" x1="2119.1687" y1="53.6012" x2="1919.1682" y2="319.6016">
					<stop  offset="0" style="stop-color:#09005D"/>
					<stop  offset="1" style="stop-color:#1A0F91"/>
				</linearGradient>
				<path style="fill:url(#SVGID_00000174561406943138350260000012658971730423168411_);" d="M1879.341,412.061
					c4.135,28.228-8.474,64.039-30.709,93.398c-15.766,1.745-32.878,0.245-46.105-8.072l16.733-37.939l-7.888-2.352l-32.788,33.611
					c-14.776,2.168-24.649-5.326-36.196-12.89c12.856-28.339,42.093-41.574,49.634-81.158L1879.341,412.061z"/>
			</g>
			<g>
				
					<linearGradient id="SVGID_00000028300387869522586290000000263956613454921912_" gradientUnits="userSpaceOnUse" x1="1721.0354" y1="190.4926" x2="1672.7617" y2="300.0873">
					<stop  offset="0" style="stop-color:#FF928E"/>
					<stop  offset="1" style="stop-color:#FEB3B1"/>
				</linearGradient>
				<path style="fill:url(#SVGID_00000028300387869522586290000000263956613454921912_);" d="M1718.923,263.48
					c0,0,17.28-18.123,1.5-34.197c-15.78-16.074-26.535-5.941-39.198-20.85C1681.226,208.433,1677.818,250.79,1718.923,263.48z"/>
				
					<linearGradient id="SVGID_00000000907800928374632830000005760443138472696455_" gradientUnits="userSpaceOnUse" x1="2027.5417" y1="-45.4512" x2="1654.6877" y2="251.0708">
					<stop  offset="0" style="stop-color:#E1473D"/>
					<stop  offset="1" style="stop-color:#E9605A"/>
				</linearGradient>
				<path style="fill:url(#SVGID_00000000907800928374632830000005760443138472696455_);" d="M1710.754,220.107
					c0.865,0.252,6.091,0.512,6.531,3.573s-2.362,4.106-8.822,2.409c-6.461-1.697-8.761,2.347-4.622,7.216
					c4.139,4.869-0.114,7.623-5.389,3.528c-5.275-4.095-5.968-1.965-4.75,2.346c1.219,4.311-5.031,5.933-8.894,0.1
					c-3.549-5.359-9.113-18.263-7.624-32.507c0.158-1.51,1.962-2.208,3.107-1.211
					C1684.14,208.913,1692.969,214.934,1710.754,220.107z"/>
				<path style="opacity:0.48;fill:#FFFFFF;" d="M1719.22,256.551c1.389-2.02,2.339-4.299,2.853-6.63
					c0.5-2.331,0.613-4.723,0.171-7.004c-0.067-0.573-0.275-1.127-0.401-1.686l-0.22-0.831l-0.324-0.803
					c-0.226-0.53-0.403-1.072-0.66-1.585l-0.836-1.506c-0.25-0.511-0.588-0.98-0.934-1.442l-1.004-1.394
					c-0.741-0.883-1.547-1.719-2.302-2.573l-0.156-0.176c-0.771-0.871-0.689-2.203,0.182-2.973s2.203-0.689,2.973,0.182
					c0.061,0.069,0.123,0.151,0.174,0.226c0.729,1.091,1.483,2.147,2.164,3.252l0.912,1.738c0.309,0.572,0.607,1.149,0.817,1.777
					l0.693,1.832c0.205,0.618,0.328,1.27,0.491,1.899l0.228,0.947l0.117,0.973c0.056,0.65,0.187,1.285,0.174,1.936
					c0.122,2.592-0.381,5.16-1.254,7.514C1722.192,252.577,1720.884,254.746,1719.22,256.551z"/>
				<g>
					
						<linearGradient id="SVGID_00000109739217934076615510000004936984504725491880_" gradientUnits="userSpaceOnUse" x1="2020.6919" y1="348.0189" x2="1864.692" y2="345.0189">
						<stop  offset="0" style="stop-color:#09005D"/>
						<stop  offset="1" style="stop-color:#1A0F91"/>
					</linearGradient>
					<path style="fill:url(#SVGID_00000109739217934076615510000004936984504725491880_);" d="M1737.05,289.889
						c26.254,47.26,38.001,87.592,41.967,103.405c0.533,2.124-2.066,3.619-3.62,2.076c-33.954-33.693-48.461-69.624-54.637-95.325
						C1726.385,293.011,1732.67,290.632,1737.05,289.889z"/>
					
						<linearGradient id="SVGID_00000016073615091946080560000007761426424544609931_" gradientUnits="userSpaceOnUse" x1="-2024.4395" y1="-131.2408" x2="-1995.8625" y2="-131.2408" gradientTransform="matrix(-0.9338 -0.3577 -0.3577 0.9338 -199.4585 -313.9395)">
						<stop  offset="0" style="stop-color:#4042E2"/>
						<stop  offset="1" style="stop-color:#4F52FF"/>
					</linearGradient>
					<path style="fill:url(#SVGID_00000016073615091946080560000007761426424544609931_);" d="M1720.197,261.902
						c6.191,9.503,11.79,18.874,16.853,27.988c-4.38,0.743-10.665,3.122-16.29,10.156c-5.144-21.408-4.507-35.719-4.507-35.719
						C1717.302,260.976,1720.197,261.902,1720.197,261.902z"/>
				</g>
			</g>
			<g>
				
					<linearGradient id="SVGID_00000075133798786395290520000004766952074096015794_" gradientUnits="userSpaceOnUse" x1="1843.7037" y1="339.5579" x2="2004.7037" y2="403.558">
					<stop  offset="0" style="stop-color:#4042E2"/>
					<stop  offset="1" style="stop-color:#4F52FF"/>
				</linearGradient>
				<path style="fill:url(#SVGID_00000075133798786395290520000004766952074096015794_);" d="M1809.997,292.095
					c-7.253-3.365-48.696,40.785-42.901,44.818c-5.044,3.015,20.166,17.452,25.562,13.344
					C1794.061,349.188,1809.997,292.095,1809.997,292.095z"/>
				
					<linearGradient id="SVGID_00000181075018127419835700000004737940134673507989_" gradientUnits="userSpaceOnUse" x1="1771.8293" y1="280.4203" x2="1915.1074" y2="447.1706">
					<stop  offset="0" style="stop-color:#4042E2"/>
					<stop  offset="1" style="stop-color:#4F52FF"/>
				</linearGradient>
				<path style="fill:url(#SVGID_00000181075018127419835700000004737940134673507989_);" d="M1884.874,294.961
					c-1.571-2.061-3.363-3.928-5.451-5.486c-10.421-7.777-25.941-3.618-38.076-4.209c-4.667-0.227-10.382-1.824-14.916-0.411
					c-8.412,2.622-18.067,5.354-24.692,11.423c-9.35,8.565-11.055,21.607-12.903,33.413c-2.302,14.705-1.922,28.6-1.922,43.488
					c0,13.969,0,27.937,0,41.906c23.066,24.227,59.081,30.614,108.537,7.78c-0.424-21.708-1.259-43.469-0.54-65.178
					c0.611-18.437,4.219-33.153-3.469-50.927C1889.66,302.639,1887.58,298.512,1884.874,294.961z"/>
			</g>
			<g>
				<g>
					
						<linearGradient id="SVGID_00000038410615997047232760000017903698567031912876_" gradientUnits="userSpaceOnUse" x1="1822.9686" y1="376.6032" x2="1894.8496" y2="376.6032">
						<stop  offset="0" style="stop-color:#FF928E"/>
						<stop  offset="1" style="stop-color:#FEB3B1"/>
					</linearGradient>
					<path style="fill:url(#SVGID_00000038410615997047232760000017903698567031912876_);" d="M1827.533,423.245
						c7.928,6.524,69.722-65.894,67.244-71.001l-25.353-22.698c-12.052,34.225-26.449,62.776-46.456,77.76L1827.533,423.245z"/>
					<g>
						<path style="fill:#91B3FA;" d="M1837.168,449.096l-28.64-100.016c-0.325-1.135-1.293-1.963-2.467-2.1
							c-5.189-0.605-20.224-2.305-37.585-3.773c-20.911-1.769-45.195-3.202-59.706-1.983c-2.063,0.173-3.31,2.355-2.392,4.211
							c8.252,16.695,42.196,84.605,59.194,106.852c0.563,0.737,1.434,1.168,2.361,1.159l66.449-0.618
							C1836.315,452.81,1837.7,450.955,1837.168,449.096z"/>
						<path style="fill:#7D97F4;" d="M1765.506,334.536l-20.764-3.46c-1.106-0.184-2.012,0.872-1.66,1.937l2.055,6.229
							c0.179,0.542,0.652,0.934,1.218,1.01l19.982,2.669c1.033,0.138,1.886-0.801,1.648-1.817l-1.272-5.438
							C1766.575,335.08,1766.099,334.635,1765.506,334.536z"/>
						<path style="fill:#7D97F4;" d="M1781.053,352.114l-1.711-8.91c-0.171-0.894-0.909-1.569-1.814-1.661l-41.939-4.256
							c-1.412-0.143-2.542,1.15-2.211,2.53l2.667,11.103c0.213,0.888,0.987,1.53,1.899,1.576l40.983,2.063
							C1780.261,354.627,1781.305,353.426,1781.053,352.114z"/>
						
							<linearGradient id="SVGID_00000155866130810902877060000007557236868149954711_" gradientUnits="userSpaceOnUse" x1="1821.8838" y1="319.1321" x2="1816.5504" y2="375.1319">
							<stop  offset="0" style="stop-color:#FF928E"/>
							<stop  offset="1" style="stop-color:#FEB3B1"/>
						</linearGradient>
						<path style="fill:url(#SVGID_00000155866130810902877060000007557236868149954711_);" d="M1830.248,424.932
							c0,0,3.99-16.405,2.38-22.225c-1.609-5.82-4.727-13.303-15.12-11.64c-10.393,1.663-22.653,6.041-22.653,6.041
							s0.619,7.581,8.518,5.135l-4.899,3.79c0,0,0.7,6.07,7.372,2.827l-4.556,5.026c0,0,2.865,4.985,7.774,1.788
							C1813.974,412.477,1816.328,426.908,1830.248,424.932z"/>
					</g>
				</g>
				
					<linearGradient id="SVGID_00000116925788549919452110000017349443656356746630_" gradientUnits="userSpaceOnUse" x1="2027.1393" y1="283.7981" x2="1934.1393" y2="308.7981">
					<stop  offset="0" style="stop-color:#4042E2"/>
					<stop  offset="1" style="stop-color:#4F52FF"/>
				</linearGradient>
				<path style="fill:url(#SVGID_00000116925788549919452110000017349443656356746630_);" d="M1860.902,343.978
					c7.591,7.324,20.086,11.322,37.818,11.769c4.491-35.717-3.893-57.93-23.288-68.596
					C1866.939,310.01,1861.346,329.757,1860.902,343.978z"/>
				<path style="fill:#91B3FA;" d="M1860.902,344.503c-0.01,0-0.018,0-0.028-0.001c-0.289-0.015-0.511-0.262-0.496-0.551
					c0.854-16.339,4.81-32.905,11.759-49.238c0.113-0.266,0.42-0.389,0.687-0.277c0.266,0.113,0.39,0.421,0.277,0.687
					c-6.901,16.22-10.829,32.667-11.677,48.883C1861.411,344.286,1861.179,344.503,1860.902,344.503z"/>
			</g>
			<g>
				
					<linearGradient id="SVGID_00000039091377667242669320000018217623702358195646_" gradientUnits="userSpaceOnUse" x1="1846.1566" y1="265.9925" x2="1845.6566" y2="355.4923">
					<stop  offset="0" style="stop-color:#FF928E"/>
					<stop  offset="1" style="stop-color:#FEB3B1"/>
				</linearGradient>
				<path style="fill:url(#SVGID_00000039091377667242669320000018217623702358195646_);" d="M1864.499,246.405v43.385
					c-9.436,6.551-24.498,6.97-36.953,0.418l5.394-43.803H1864.499z"/>
				
					<linearGradient id="SVGID_00000127765831798270508140000005937305765696101523_" gradientUnits="userSpaceOnUse" x1="1855.5308" y1="141.9542" x2="1810.8641" y2="274.6209">
					<stop  offset="0" style="stop-color:#FF928E"/>
					<stop  offset="1" style="stop-color:#FEB3B1"/>
				</linearGradient>
				<path style="fill:url(#SVGID_00000127765831798270508140000005937305765696101523_);" d="M1785.444,225.643
					c-0.48,5.729-0.518,11.187-0.23,15.93c1.216,19.982,19.009,35.933,39.423,35.933c24.763,0,44.838-23.649,44.838-52.821
					c0-29.172-20.074-52.82-44.838-52.82C1797.573,171.865,1787.491,201.222,1785.444,225.643z"/>
				
					<linearGradient id="SVGID_00000036228610043053995750000000522885348642510732_" gradientUnits="userSpaceOnUse" x1="1782.5004" y1="201.7566" x2="1909.1985" y2="201.7566">
					<stop  offset="0" style="stop-color:#09005D"/>
					<stop  offset="1" style="stop-color:#1A0F91"/>
				</linearGradient>
				<path style="fill:url(#SVGID_00000036228610043053995750000000522885348642510732_);" d="M1866.532,241.764
					c-5.095,6.738,0.877,13.45,7.508,15.367c8.458,2.445,20.852-4.701,26.151-10.853c9.822-11.402,9.473-27.97,8.602-42.907
					c-0.212-3.64-0.516-7.531-2.796-10.402c-2.045-2.575-5.404-3.935-7.278-6.633c-1.354-1.95-1.769-4.362-2.346-6.655
					c-2.249-8.935-7.718-17.304-15.816-21.881c-8.098-4.578-18.887-4.812-26.52,0.486c-8.321-7.657-19.426-12.835-30.796-12.367
					c-11.37,0.469-22.697,7.315-26.651,17.839c-0.767,2.042-1.391,4.362-3.235,5.557c-0.818,0.53-1.788,0.769-2.698,1.124
					c-4.711,1.839-7.61,6.914-7.762,11.909c-0.165,5.465,6.013,10.026,2.916,14.547c-4.269,6.231-4.787,16.764,0.69,22.487
					c1.692-3.103,2.907-6.368,4.257-9.629c1.437-3.469,1.821-8.98,3.863-11.922c-0.21,0.303,9.645,2.955,11.008,2.69
					c2.738-0.532,3.554-1.781,5.239-3.761c4.094-4.811,9.993-10.457,13.534-2.218c1.411,3.281,5.523,5.159,8.972,4.098
					c-2.849,4.262-1.979,10.14,0.753,14.476c2.732,4.336,7,7.472,11.167,10.501c3.277,2.383,6.555,4.765,9.833,7.148
					c4.149,3.016,9.3,6.189,14.108,4.354C1870.76,237.222,1868.099,239.693,1866.532,241.764z"/>
				
					<linearGradient id="SVGID_00000011735507661746574400000014353679845194312320_" gradientUnits="userSpaceOnUse" x1="1900.8624" y1="157.2166" x2="1856.1959" y2="289.8832">
					<stop  offset="0" style="stop-color:#FF928E"/>
					<stop  offset="1" style="stop-color:#FEB3B1"/>
				</linearGradient>
				<path style="fill:url(#SVGID_00000011735507661746574400000014353679845194312320_);" d="M1880.543,241.922
					c-2.907,4.748-8.374,8.028-13.023,11.009c-1.278,0.82-2.657,1.669-4.181,1.65c-6.554-0.085,1.96-16.352,4.026-18.139
					c1.773-1.535,3.579-3.091,5.72-4.069c2.141-0.978,4.704-1.315,6.852-0.352C1884.747,234.174,1882.544,238.654,1880.543,241.922z
					"/>
			</g>
		</g>
		<g>
			<g>
				
					<linearGradient id="SVGID_00000027565566490185829780000003927845162570338227_" gradientUnits="userSpaceOnUse" x1="1243.1848" y1="1266.5457" x2="1895.2139" y2="1385.3781">
					<stop  offset="0" style="stop-color:#4042E2"/>
					<stop  offset="1" style="stop-color:#4F52FF"/>
				</linearGradient>
				<path style="fill:url(#SVGID_00000027565566490185829780000003927845162570338227_);" d="M1971.548,1280.649
					c15.254,3.425,27.509,12.018,36.314,24.958c2.292,3.367,4.285,6.975,5.491,10.866c0.78,2.518,1.224,5.13,1.49,7.753
					c3.352,33.002-21.03,58.192-48.479,71.986c-36.484,18.334-74.878,17.758-114.342,20.401c-40.446,2.709-80.892,5.419-121.359,7.8
					c-35.219,2.072-70.46,3.983-105.718,5.254c-20.421,0.786-40.841,1.582-61.267,2.191c-19.544,0.583-40.765,3.292-60.149,0.836
					c6.882-17.85,6.262-43.66,6.134-62.813c-0.096-14.382-0.978-28.736-1.886-43.079c-0.423-6.682-5.675-31.74-0.608-35.729
					c1.718-1.352,4.512-1.913,7.671-2.081c5.759-0.305,12.731,0.7,16.605,0.611c10.075-0.231,20.153-0.373,30.231-0.441
					c20.162-0.135,40.325,0.028,60.485,0.37c79.49,1.348,160.871,1.225,238.667,18.454c3.114,0.708,40.706,7.368,40.473,6.545
					c-2.492-8.783,4.621-17.362,12.127-22.56C1930.125,1280.41,1951.73,1276.2,1971.548,1280.649z"/>
				
					<linearGradient id="SVGID_00000093896212059385928880000007171025648657181864_" gradientUnits="userSpaceOnUse" x1="1951.5139" y1="1256.3704" x2="1936.8473" y2="1123.0369">
					<stop  offset="0" style="stop-color:#4042E2"/>
					<stop  offset="1" style="stop-color:#4F52FF"/>
				</linearGradient>
				<path style="fill:url(#SVGID_00000093896212059385928880000007171025648657181864_);" d="M2014.904,1342.131
					c-2.018,6.924-4.201,15.684-9.905,20.603c0.8-1.235,1.038-2.742,1.209-4.203c1.328-11.337-0.29-23.742-3.994-34.532
					c-5.246-15.28-16.533-24.104-30.78-30.374c-8.605-3.787-17.987-6.244-27.365-5.574c-9.378,0.67-18.755,4.746-24.546,12.153
					c-4.485,5.736-6.98,16.939-0.278,21.953c6.016,4.501,19.888,5.29,24.981-1.37c0.62-0.813,1.461-1.779,2.45-1.516
					c0.827,1.462,0.213,3.311-0.613,4.773c-2.709,4.796-7.509,8.172-12.703,10.007c-7.592,2.683-16.725,3.965-23.461-1.002
					c-5.396-3.979-8.542-10.063-8.9-16.738c-1.05-19.621,14.703-34.051,32.809-37.976c11.653-2.526,23.794-1.545,35.54,0.501
					c19.189,3.343,37.391,11.953,43.221,31.752c0.66,2.241,1.319,4.481,1.979,6.722
					C2017,1325.631,2017.338,1333.778,2014.904,1342.131z"/>
				
					<linearGradient id="SVGID_00000067927295181679480100000008544324818686945459_" gradientUnits="userSpaceOnUse" x1="1697.6633" y1="1306.0497" x2="1644.33" y2="1445.3831">
					<stop  offset="0" style="stop-color:#FF928E"/>
					<stop  offset="1" style="stop-color:#FEB3B1"/>
				</linearGradient>
				<path style="fill:url(#SVGID_00000067927295181679480100000008544324818686945459_);" d="M1746.812,1318.601
					c-2.375-8.71-6.256-17.63-11.257-26.152c-37.835-1.967-75.826-2.278-113.395-2.915c-4.049-0.069-8.099-0.124-12.148-0.178
					c1.797,4.475,3.637,8.998,5.678,13.589c14.678,35.227,7.828,76.325,4.893,114.487c-0.391,4.3-1.036,8.448-1.886,12.474
					c2.083-0.08,4.166-0.16,6.248-0.24c35.258-1.271,70.499-3.181,105.718-5.253c5.371-0.316,10.741-0.651,16.111-0.978
					C1754.604,1389.278,1755.271,1353.435,1746.812,1318.601z"/>
			</g>
			<g>
				<ellipse style="fill:#7D97F4;" cx="1506.732" cy="1361.167" rx="12.304" ry="71.922"/>
				<g>
					
						<linearGradient id="SVGID_00000173840805842566967560000012308276317855783098_" gradientUnits="userSpaceOnUse" x1="1487.4998" y1="1327.6742" x2="1422.2346" y2="1430.9658">
						<stop  offset="0" style="stop-color:#4042E2"/>
						<stop  offset="1" style="stop-color:#4F52FF"/>
					</linearGradient>
					
						<ellipse style="fill:url(#SVGID_00000173840805842566967560000012308276317855783098_);" cx="1466.37" cy="1361.115" rx="4.987" ry="25.369"/>
					
						<linearGradient id="SVGID_00000116218512495416830550000014891477113220880012_" gradientUnits="userSpaceOnUse" x1="1776.1022" y1="745.546" x2="1411.4128" y2="1471.3124">
						<stop  offset="0" style="stop-color:#FE7062"/>
						<stop  offset="1" style="stop-color:#FF928E"/>
					</linearGradient>
					<path style="fill:url(#SVGID_00000116218512495416830550000014891477113220880012_);" d="M1424.82,1334.079
						c-4.672,1.078-9.071,2.524-12.963,4.248c-16.621,7.362-33.109,18.411-39.554,35.409c-3.067,8.088-3.596,16.87-4.844,25.433
						c-2.385,15.902-1.178,31.592-16.188,39.82c-17.764,9.737-36.659,17.835-54.878,26.699c-3.939,1.916-8.235,4.219-9.682,8.353
						c-1.174,3.355-0.125,7.069,1.293,10.328c4.559,10.475,13.065,19.175,23.435,23.971c20.648,9.547,48.6-2.968,70.515-0.784
						c14.265,1.421,27.65,7.269,41.398,11.332c25.084,7.413,51.902,8.888,77.647,4.269c3.642-0.653,7.569-1.609,9.863-4.512
						c3.42-4.328,1.362-11.132-2.882-14.655c-4.244-3.523-9.938-4.615-15.368-5.588c-13.839-2.48-27.677-4.959-41.516-7.439
						c-12.547-2.248-22.752-7.114-19.62-21.545c1.117-5.145,5.61-8.913,5.639-14.554c0.036-6.897-4.838-10.866-8.16-16.382
						c-4.625-7.678,1.367-24.356,3.462-32.37c5.428-20.768,21.823-23.836,39.903-28.111c3.084-0.729,6.288-1.853,8.255-4.339
						c6.756-8.538,2.595-26.08-5.613-32.497C1462.099,1331.107,1441.686,1330.188,1424.82,1334.079z"/>
					<path style="fill:#91B3FA;" d="M1500.376,1335.849l-33.009,0c6.358,15.724,5.588,32.743,0,50.636l31.624,0
						C1505.507,1369.606,1505.969,1352.727,1500.376,1335.849z"/>
				</g>
				<path style="fill:#7D97F4;" d="M1466.37,1335.746c6.366,15.533,6.933,32.323,0,50.739h10.858c5.226-16.89,5.212-33.803,0-50.739
					H1466.37z"/>
			</g>
		</g>
		<g>
			<g>
				
					<linearGradient id="SVGID_00000030464157369237191790000002328846178565486978_" gradientUnits="userSpaceOnUse" x1="1834.9723" y1="1218.8485" x2="1621.9723" y2="1204.8485">
					<stop  offset="0" style="stop-color:#FF928E"/>
					<stop  offset="1" style="stop-color:#FEB3B1"/>
				</linearGradient>
				<path style="fill:url(#SVGID_00000030464157369237191790000002328846178565486978_);" d="M1609.981,1126.743
					c-1.898,51.157,0.745,103.512,7.274,158.031h-12.251c-13.016-54.519-22.46-109.362-28.33-163.944L1609.981,1126.743z"/>
				
					<linearGradient id="SVGID_00000179624991561396950890000013748561358466274224_" gradientUnits="userSpaceOnUse" x1="1951.3265" y1="1085.7892" x2="1743.3268" y2="1142.7891">
					<stop  offset="0" style="stop-color:#FF928E"/>
					<stop  offset="1" style="stop-color:#FEB3B1"/>
				</linearGradient>
				<path style="fill:url(#SVGID_00000179624991561396950890000013748561358466274224_);" d="M1627.934,1127.507
					c7.337,72.343,29.204,108.61,84.721,57.742c1.998-6.951,1.711-12.54-6.407-15.195c-35.953,29.678-46.988,19.312-51.26-42.547
					H1627.934z"/>
				
					<linearGradient id="SVGID_00000086655199942348794250000003370299342266818441_" gradientUnits="userSpaceOnUse" x1="1775.2355" y1="774.6066" x2="1740.7373" y2="1028.094">
					<stop  offset="0" style="stop-color:#09005D"/>
					<stop  offset="1" style="stop-color:#1A0F91"/>
				</linearGradient>
				<path style="fill:url(#SVGID_00000086655199942348794250000003370299342266818441_);" d="M1703.548,1171.062
					c8.37,3.512,11.507,6.978,9.107,13.4c9.372,11.728,17.148,14.656,23.731,11.005c-4.914-14.06-11.763-26.98-22.697-37.495
					C1708.07,1161.684,1701.268,1167.547,1703.548,1171.062z"/>
				
					<linearGradient id="SVGID_00000147193158703281820670000002537377061151919796_" gradientUnits="userSpaceOnUse" x1="1716.2595" y1="1061.5455" x2="1295.4943" y2="1265.0782">
					<stop  offset="0" style="stop-color:#4042E2"/>
					<stop  offset="1" style="stop-color:#4F52FF"/>
				</linearGradient>
				<path style="fill:url(#SVGID_00000147193158703281820670000002537377061151919796_);" d="M1576.199,1071.115
					c-7.989,20.974-14.835,40.661-16.137,54.107c22.851,18.236,64.347,20.055,113.436,15.188
					c1.101-16.542-0.231-34.207-3.322-52.684L1576.199,1071.115z"/>
				
					<linearGradient id="SVGID_00000158751422171928062400000008260938936628804258_" gradientUnits="userSpaceOnUse" x1="1670.2792" y1="760.3218" x2="1635.7813" y2="1013.8082">
					<stop  offset="0" style="stop-color:#09005D"/>
					<stop  offset="1" style="stop-color:#1A0F91"/>
				</linearGradient>
				<path style="fill:url(#SVGID_00000158751422171928062400000008260938936628804258_);" d="M1617.017,1272.238
					c-3.553,3.378-8.043,4.738-14.318,2.25c-17.186,0.887-26.057,5.854-26.025,15.193c12.888,4.053,27.203,2.913,42.004,0
					C1622.297,1285.554,1620.187,1279.11,1617.017,1272.238z"/>
			</g>
			
				<linearGradient id="SVGID_00000093170522433550524750000011057766657974311587_" gradientUnits="userSpaceOnUse" x1="1866.5258" y1="707.1609" x2="1758.5311" y2="836.1545">
				<stop  offset="0" style="stop-color:#09005D"/>
				<stop  offset="1" style="stop-color:#1A0F91"/>
			</linearGradient>
			<path style="fill-rule:evenodd;clip-rule:evenodd;fill:url(#SVGID_00000093170522433550524750000011057766657974311587_);" d="
				M1679.014,870.006c-0.551-1.443-1.147-2.87-1.795-4.281c-16.226-35.361-67.923-54.278-93.426-17.104
				c-2.765,4.031-4.505,8.66-6.219,13.237c-10.971,29.306-38.453,84.315-2.774,105.823c13.643,8.224,25.778,15.393,36.948,27.322
				c13.619,14.545,24.628,31.285,36.005,47.643c6.937,9.974,14.353,20.133,24.855,26.241c23.274,13.536,54.758,1.95,71.627-19.035
				c4.565-5.678,8.461-12.208,9.36-19.439c0.594-4.781-0.157-9.655-1.593-14.253c-8.865-28.394-40.922-43.093-54.876-69.363
				C1684.735,923.472,1688.396,894.558,1679.014,870.006z"/>
			<g>
				
					<linearGradient id="SVGID_00000053511857797023227840000010529423724430464146_" gradientUnits="userSpaceOnUse" x1="1545.2477" y1="970.5416" x2="1619.6154" y2="1248.4425">
					<stop  offset="0" style="stop-color:#4042E2"/>
					<stop  offset="1" style="stop-color:#4F52FF"/>
				</linearGradient>
				<path style="fill:url(#SVGID_00000053511857797023227840000010529423724430464146_);" d="M1490.158,959.538
					c28.561,6.603,63.871,2.563,107.762-15.006l2.015,40.161c-41.176,11.779-79.795,11.112-113.776-12.117L1490.158,959.538z"/>
				
					<linearGradient id="SVGID_00000111192912651549198470000011296842999434594706_" gradientUnits="userSpaceOnUse" x1="1567.656" y1="1022.7762" x2="1689.9961" y2="1022.7762">
					<stop  offset="0" style="stop-color:#4042E2"/>
					<stop  offset="1" style="stop-color:#4F52FF"/>
				</linearGradient>
				<path style="fill:url(#SVGID_00000111192912651549198470000011296842999434594706_);" d="M1582.37,953.589
					c5.446-10.054,23.308-11.406,33.158-11.813c14.47-0.599,26.308,0.841,35.878,13.166c1.58,2.034,2.95,4.222,4.304,6.414
					c5.591,9.048,7.429,22.374,10.382,32.553c5.843,20.139,11.585,40.317,16.817,60.625c0.77,2.989,9.838,30.711,6.252,32.719
					c-8.069,28.003-94.503,18.802-121.505-13.764C1571.023,1025.998,1573.654,974.907,1582.37,953.589z"/>
			</g>
			<g>
				
					<linearGradient id="SVGID_00000133509094518948993530000011339167948236869784_" gradientUnits="userSpaceOnUse" x1="1602.5706" y1="868.3746" x2="1643.0685" y2="1067.8649">
					<stop  offset="0" style="stop-color:#FF928E"/>
					<stop  offset="1" style="stop-color:#FEB3B1"/>
				</linearGradient>
				<path style="fill:url(#SVGID_00000133509094518948993530000011339167948236869784_);" d="M1596.608,920.658l5.696,32.275
					c12.905,7.579,23.603,4.338,32.275-6.17l-5.695-34.648L1596.608,920.658z"/>
				
					<linearGradient id="SVGID_00000134954892421397043330000007021621217765070469_" gradientUnits="userSpaceOnUse" x1="1685.0027" y1="811.4448" x2="1620.5056" y2="881.9416">
					<stop  offset="0" style="stop-color:#FF928E"/>
					<stop  offset="1" style="stop-color:#FEB3B1"/>
				</linearGradient>
				<path style="fill:url(#SVGID_00000134954892421397043330000007021621217765070469_);" d="M1650.967,888.137
					c1.411,1.763,4.52,4.713,4.657,7.089c0.254,4.428-1.113,8.932-3.784,12.473c-1.015,1.345-2.286,2.601-3.904,3.07
					c-1.339,0.388-2.779,0.199-4.149,0.459c-4.537,0.864-7.115,6.022-10.268,8.924c-3.849,3.542-7.527,6.783-12.363,9.017
					c-9.999,4.618-21.206,3.79-29.845-3.28c-10.337-8.461-15.112-22.568-15.112-35.608c0-16.017,7.348-33.706,22.14-40.589
					c15.066-7.01,33.498,2.651,40.302,16.769c2.357,4.891,3.939,10.183,6.914,14.725
					C1647.143,883.609,1649.133,885.844,1650.967,888.137z"/>
				
					<linearGradient id="SVGID_00000079445343138822695050000013356028174025036454_" gradientUnits="userSpaceOnUse" x1="1802.798" y1="653.8085" x2="1694.8032" y2="782.8021">
					<stop  offset="0" style="stop-color:#09005D"/>
					<stop  offset="1" style="stop-color:#1A0F91"/>
				</linearGradient>
				<path style="fill:url(#SVGID_00000079445343138822695050000013356028174025036454_);" d="M1601.472,871.197
					c0.585,1.4,2.929,2.161,4.931,2.292c7.688,0.506,13.476-4.225,20.648-5.47c3.732-0.648,3.343,2.023,4.296,4.577
					c1.444,3.871,4.857,3.784,8.203,5.203c2.063,0.874,3.53,2.722,4.827,4.549c3.871,5.452-0.53,10.204-0.909,15.985
					c-0.012,0.179-0.023,0.364,0.042,0.531c0.307,0.792,6.483-2.882,7.634-3.536c2.966-1.686,5.652-4.029,6.748-7.382
					c0.817-2.496,0.593-5.239-0.155-7.757c-3.21-10.806-11.511-21.591-19.88-28.93c-8.187-7.18-18.568-9.866-29.435-9.376
					c-6.432,0.29-13.143,1.894-18.55,5.51c-4.062,2.717-11.853,10.632-7.165,15.748c5.218,5.695,15.986,2.184,22.456,1.376
					c-0.075,1.491-1.437,2.526-2.501,3.574C1601.388,869.346,1601.131,870.38,1601.472,871.197z"/>
			</g>
			<g>
				<g>
					
						<linearGradient id="SVGID_00000085968874458863940390000001362709517163308189_" gradientUnits="userSpaceOnUse" x1="1117.5988" y1="651.8688" x2="1418.9847" y2="963.0402">
						<stop  offset="0" style="stop-color:#FF928E"/>
						<stop  offset="1" style="stop-color:#FEB3B1"/>
					</linearGradient>
					<path style="fill:url(#SVGID_00000085968874458863940390000001362709517163308189_);" d="M1333.047,858.974
						c-0.936,9.491-4.641,17.951-14.432,22.14c-26.005,11.127-68.56-11.958-88.042-28.569c-26.132-22.28-49.642-51.492-56.429-85.91
						c-2.41-12.22-2.641-24.751-2.863-37.205c-0.421-23.518-5.819-47.589,2.605-70.269c4.467,12.483,10.288,24.709,19.144,34.577
						c17.539,19.544,48.665,24.955,71.868,35.296c7.394,3.295,14.73,6.903,21.094,11.906c7.269,5.714,13.065,13.091,18.169,20.801
						c13.829,20.888,22.975,44.823,26.812,69.567C1332.246,839.515,1333.959,849.733,1333.047,858.974z"/>
					
						<linearGradient id="SVGID_00000026137397509196749810000013807469075103210170_" gradientUnits="userSpaceOnUse" x1="1252.017" y1="765.4102" x2="1326.3846" y2="1096.1511">
						<stop  offset="0" style="stop-color:#FE7062"/>
						<stop  offset="1" style="stop-color:#FF928E"/>
					</linearGradient>
					<path style="fill:url(#SVGID_00000026137397509196749810000013807469075103210170_);" d="M1330.974,831.308
						c-2.669-17.209-7.911-34.024-15.505-49.697c0.379,16.85,1.891,33.794,2.41,50.405c-10.508,0-15.359-14.55-20.209-22.634
						c0.808,9.7,8.083,18.592,4.85,28.292c-12.125-10.509-22.634-22.634-32.334-34.759c2.425,16.975,12.934,30.717,21.017,46.076
						c0.808,1.617,0,3.233,0,4.85c-18.592-8.892-34.759-21.017-47.693-36.376c1.617,10.508,12.125,18.592,11.317,29.909
						c-0.808,0.808-2.425,0.808-4.042,0.808c-17.7-7.586-34.134-18.335-50.887-27.498c9.047,11.771,19.623,22.438,30.674,31.86
						c19.483,16.611,62.037,39.696,88.042,28.569c9.791-4.189,13.495-12.649,14.432-22.14
						C1333.959,849.733,1332.246,839.515,1330.974,831.308z"/>
					
						<linearGradient id="SVGID_00000096027222119239566540000013559981052636073900_" gradientUnits="userSpaceOnUse" x1="1407.8351" y1="108.7724" x2="1161.2474" y2="805.4816">
						<stop  offset="0" style="stop-color:#E1473D"/>
						<stop  offset="1" style="stop-color:#E9605A"/>
					</linearGradient>
					<path style="fill:url(#SVGID_00000096027222119239566540000013559981052636073900_);" d="M1165.504,717.221
						c-1.637-17.397-1.929-36.908,5.066-53.277c0.45-1.052,1.003-2.127,1.955-2.761c2.009-1.339,4.876-0.042,6.198,1.978
						c1.322,2.02,1.591,4.521,2.146,6.871c2.135,9.045,8.773,16.37,16.038,22.165c9.171,7.315,19.034,13.695,28.249,20.967
						c3.662,2.89,7.732,7.474,5.503,11.572c-2.033,3.737-7.945,3.778-10.073,7.461c-1.918,3.318,0.219,7.982-1.925,11.159
						c-1.549,2.295-4.714,2.818-7.476,2.619c-2.762-0.199-5.57-0.902-8.259-0.241c-0.732,0.18-1.486,0.497-1.893,1.131
						c-0.483,0.752-0.349,1.728-0.199,2.609c1.145,6.705,0.538,13.327-7.182,14.401c-8.34,1.161-9.42,3.909-13.513,11.554
						c-0.603,1.126-1.214,2.273-1.469,3.525c-0.361,1.774,0.019,3.601,0.238,5.398c0.434,3.57,0.22,7.218-0.629,10.713
						c-0.496,2.042-5.257,5.124-6.57,2.245c-0.417-0.918-0.19-1.984,0.01-2.972c1.438-7.135,3.623-13.538,2.511-20.899
						c-1.049-6.945-3.468-13.586-5.508-20.279c-1.757-5.762-0.356-9.754-0.718-15.523
						C1167.573,730.79,1166.146,724.046,1165.504,717.221z"/>
					
						<linearGradient id="SVGID_00000029035604999523091420000002886355674593368459_" gradientUnits="userSpaceOnUse" x1="1536.4452" y1="547.4417" x2="1289.8636" y2="1244.1338" gradientTransform="matrix(0.9848 -0.1738 0.1738 0.9848 -322.6248 -127.8863)">
						<stop  offset="0" style="stop-color:#E1473D"/>
						<stop  offset="1" style="stop-color:#E9605A"/>
					</linearGradient>
					<path style="fill:url(#SVGID_00000029035604999523091420000002886355674593368459_);" d="M1168.538,811.55
						c-0.52,0.966-1.048,1.927-1.584,2.883c-0.938,1.674-1.912,3.357-2.403,5.212c-0.826,3.12-0.268,10.591,2.573,12.477
						c1.445,0.96,2.984,1.951,4.716,2.043c7.326,0.389,8.881-6.957,7.997-12.681c-0.332-2.151-1.151-4.193-1.963-6.213
						c-0.706-1.754-3.163-10.909-4.884-11.268c-1.919-0.401-2.181,3.206-2.752,4.318
						C1169.681,809.403,1169.115,810.479,1168.538,811.55z"/>
				</g>
				<g>
					
						<linearGradient id="SVGID_00000088099821952624872900000015422031697255788458_" gradientUnits="userSpaceOnUse" x1="1320.1558" y1="959.2036" x2="2069.7039" y2="1219.4906">
						<stop  offset="0" style="stop-color:#09005D"/>
						<stop  offset="1" style="stop-color:#1A0F91"/>
					</linearGradient>
					<path style="fill:url(#SVGID_00000088099821952624872900000015422031697255788458_);" d="M1308.987,886.61
						c-3.852-21.642-4.877-25.483,19.82-30.573c198.433,101.708,379.723,241.711,568.656,391.096
						c10.509,8.083,0.808,23.442-12.934,13.248C1660.308,1139.36,1453.681,1028.88,1308.987,886.61z"/>
					
						<linearGradient id="SVGID_00000072994105315804672730000004849489786392825218_" gradientUnits="userSpaceOnUse" x1="1356.9696" y1="872.8862" x2="1451.4651" y2="784.3905">
						<stop  offset="0" style="stop-color:#4042E2"/>
						<stop  offset="1" style="stop-color:#4F52FF"/>
					</linearGradient>
					<path style="fill:url(#SVGID_00000072994105315804672730000004849489786392825218_);" d="M1389.753,888.308
						c-20.152-11.287-40.456-22.203-60.946-32.706c-24.697,5.09-23.672,8.931-19.82,30.573
						c13.799,13.568,28.165,26.844,43.052,39.871C1368.644,919.365,1382.305,905.339,1389.753,888.308z"/>
				</g>
			</g>
			<g>
				
					<linearGradient id="SVGID_00000175281502351352167740000014913914509630774955_" gradientUnits="userSpaceOnUse" x1="1549.8221" y1="1054.4753" x2="1826.744" y2="1054.4753">
					<stop  offset="0" style="stop-color:#FF928E"/>
					<stop  offset="1" style="stop-color:#FEB3B1"/>
				</linearGradient>
				<path style="fill:url(#SVGID_00000175281502351352167740000014913914509630774955_);" d="M1509.298,1048.766
					c-0.246,3.702,6.164,6.976,8.849,8.445c7.471,4.088,16.426,5.83,24.627,5.929c1.162,0.014,2.323,0.028,3.485,0.042
					c6.143,0.075,11.461-2.015,17.377-3.582c1.234-0.329,2.544-0.703,3.386-1.663c1.696-1.932-1.104-5.962-2.087-7.731
					c-0.253-0.455-0.524-0.93-0.967-1.203c-0.438-0.27-0.976-0.303-1.49-0.32c-3.844-0.128-7.209,1.176-11.045,1.281
					c-2.095,0.058-4.191,0.115-6.286,0.173c-1.75,0.048-3.516,0.095-5.234-0.238c-4.26-0.826-7.943-3.927-12.278-4.13
					c-0.166-0.008-0.337-0.01-0.492,0.049c-0.487,0.188-0.553,0.901-0.269,1.34c0.281,0.434,0.769,0.675,1.214,0.939
					c1.182,0.704,2.018,1.715,2.09,3.102c-7.492-1.916-15.166-3.241-22.999-3.47c1.188,1.655,2.531,3.157,3.998,4.515
					L1509.298,1048.766z"/>
				
					<linearGradient id="SVGID_00000137117151633346155860000005728802179378144407_" gradientUnits="userSpaceOnUse" x1="1871.7771" y1="867.7331" x2="1703.7856" y2="962.2285">
					<stop  offset="0" style="stop-color:#4042E2"/>
					<stop  offset="1" style="stop-color:#4F52FF"/>
				</linearGradient>
				<path style="fill:url(#SVGID_00000137117151633346155860000005728802179378144407_);" d="M1554.986,1048.63
					c27.415-12.049,53.744-36.882,78.695-77.965c20.924-14.943,26.985,3.03,21.065,30.929
					c-26.322,34.713-52.795,58.271-94.942,60.09C1561.091,1056.33,1559.545,1051.958,1554.986,1048.63z"/>
			</g>
		</g>
	</g>
</g>
</svg>
